<!DOCTYPE svg PUBLIC "-//W3C//DTD SVG 1.1//EN" "http://www.w3.org/Graphics/SVG/1.1/DTD/svg11.dtd">
<!-- Uploaded to: SVG Repo, www.svgrepo.com, Transformed by: SVG Repo Mixer Tools -->
<svg height="65px" width="65px" version="1.1" id="Layer_1" xmlns="http://www.w3.org/2000/svg" xmlns:xlink="http://www.w3.org/1999/xlink" viewBox="-488.79 -488.79 1471.31 1471.31" xml:space="preserve" fill="#000000" stroke="#000000" stroke-width="22.217760000000002" transform="rotate(0)matrix(1, 0, 0, 1, 0, 0)">
<g id="SVGRepo_bgCarrier" stroke-width="0" transform="translate(0,0), scale(1)">
<path transform="translate(-488.79, -488.79), scale(45.9784375)" d="M16,28.78691642950563C17.898403584949747,28.712253108490945,20.014109641391475,28.52198470352344,21.409200999325318,27.232321613459487C22.817229242279417,25.9306992900334,22.16501946269994,23.366573171950282,23.42603968021556,21.922069029756706C24.773387046878703,20.37867676285643,27.535017824848676,20.589983784718434,28.68688808286067,18.895699415231107C29.835560409808444,17.206118878123434,29.925304513689245,14.915360207896128,29.555667978583205,12.906007242888869C29.18189639399747,10.87417605091171,27.971533521299158,9.091688130076223,26.599270993335494,7.54736344126178C25.261671642358422,6.0420481977409946,23.421743456837866,5.193446672701155,21.730755909241964,4.099962735925711C19.84095785955678,2.877917183894163,18.248355104572497,0.7914412921415933,16.000000000000004,0.6933019851498745C13.760246358782732,0.5955381267032193,11.808350607695855,2.232800334246984,10.023145032832252,3.5889327764665175C8.415964890286904,4.809828096582963,7.542236958978213,6.680790193149652,6.169891180414378,8.160749806562244C4.685398452048932,9.761650482399705,1.6697871846825445,10.525263256152108,1.5688465014675668,12.706183386037388C1.4596875144220252,15.064667840699608,4.496823863228244,16.318830789722853,5.69823605927443,18.351310394178366C6.5183214136804,19.738683322660545,6.791411154959289,21.32638435849024,7.515409786940214,22.766234910487263C8.37625727246189,24.478243293462068,8.819166690917612,26.557070491480133,10.38194156584095,27.66601854572494C11.959056562693101,28.785142378046142,14.0676557913992,28.862914619301215,16,28.78691642950563" fill="#1fc7ff" strokewidth="0"/>
</g>
<g id="SVGRepo_tracerCarrier" stroke-linecap="round" stroke-linejoin="round" stroke="#CCCCCC" stroke-width="28.636224"> <path style="fill:#95C675;" d="M404.936,92.136c-1.768-0.168-39.52-2.968-39.52-2.968S339.176,63,336.304,60.12 c-2.88-2.896-8.504-2.032-10.696-1.368c-0.312,0.088-5.72,1.776-14.672,4.536c-8.768-25.336-24.216-48.616-51.408-48.616 c-0.752,0-1.528,0.032-2.312,0.08C249.488,4.488,239.904,0,231.624,0C168.272,0,138,79.608,128.512,120.064 c-24.624,7.648-42.128,13.104-44.336,13.824c-13.768,4.336-14.192,4.768-15.976,17.776c-1.376,9.848-37.336,289.312-37.336,289.312 l280.176,52.752l151.824-33.016c0,0-53.288-362.088-53.624-364.576C408.904,93.656,406.728,92.28,404.936,92.136z M255.136,77.904 c0,0.952-0.016,1.848-0.016,2.752c-15.424,4.808-32.16,10.008-48.968,15.248c9.432-36.56,27.096-54.24,42.56-60.904 C252.592,44.808,255.136,58.904,255.136,77.904z M229.872,17.088c2.768,0,5.504,0.928,8.144,2.76 c-20.312,9.592-42.064,33.792-51.264,82.088c-13.432,4.176-26.552,8.272-38.704,12.048 C158.816,77.128,184.368,17.088,229.872,17.088z M240.792,232.384c0,0-16.4-8.792-36.488-8.792 c-29.488,0-30.976,18.592-30.976,23.264c0,25.56,66.296,35.36,66.296,95.224c0,47.104-29.712,77.424-69.808,77.424 c-48.096,0-72.704-30.088-72.704-30.088l12.872-42.76c0,0,25.28,21.832,46.64,21.832c13.92,0,19.592-11.04,19.592-19.096 c0-33.344-54.392-34.832-54.392-89.624c0-46.088,32.928-90.728,99.424-90.728c25.592,0,38.264,7.384,38.264,7.384L240.792,232.384z M271.744,75.488c0-1.688,0.016-3.336,0.016-5.152c0-15.728-2.184-28.408-5.672-38.456c14.016,1.752,23.352,17.784,29.36,36.224 C288.416,70.312,280.416,72.792,271.744,75.488z"/> <path style="fill:#79B259;" d="M404.936,92.136c-1.768-0.168-39.52-2.968-39.52-2.968S339.176,63,336.304,60.12 c-2.88-2.896-8.504-2.032-10.696-1.368c-0.312,0.088-5.72,1.776-14.672,4.536c-8.768-25.336-24.216-48.616-51.408-48.616 c-0.752,0-1.528,0.032-2.312,0.08C249.488,4.488,239.904,0,231.624,0c-63.352,0-78.984,79.608-88.472,120.064 c-24.624,7.648-43.52,49.752-45.752,50.456c-13.752,4.336-14.176,4.768-15.968,17.784c-1.384,9.84-50.568,252.672-50.568,252.672 l280.176,52.752l151.824-33.016c0,0-53.288-362.088-53.624-364.576C408.904,93.656,406.728,92.28,404.936,92.136z M255.136,77.904 c0,0.952-0.016,1.848-0.016,2.752c-15.424,4.808-32.16,10.008-48.968,15.248c9.432-36.56,27.096-54.24,42.56-60.904 C252.592,44.808,255.136,58.904,255.136,77.904z M229.872,17.088c2.768,0,5.504,0.928,8.144,2.76 c-20.312,9.592-42.064,33.792-51.264,82.088c-13.432,4.176-26.552,8.272-38.704,12.048 C158.816,77.128,184.368,17.088,229.872,17.088z M240.792,232.384c0,0-16.4-8.792-36.488-8.792 c-29.488,0-30.976,18.592-30.976,23.264c0,25.56,66.296,35.36,66.296,95.224c0,47.104-29.712,77.424-69.808,77.424 c-48.096,0-72.704-30.088-72.704-30.088l12.872-42.76c0,0,25.28,21.832,46.64,21.832c13.92,0,19.592-11.04,19.592-19.096 c0-33.344-54.392-34.832-54.392-89.624c0-46.088,32.928-90.728,99.424-90.728c25.592,0,38.264,7.384,38.264,7.384L240.792,232.384z M271.744,75.488c0-1.688,0.016-3.336,0.016-5.152c0-15.728-2.184-28.408-5.672-38.456c14.016,1.752,23.352,17.784,29.36,36.224 C288.416,70.312,280.416,72.792,271.744,75.488z"/> <path style="fill:#55932C;" d="M311.04,493.72l151.824-33.008c0,0-53.288-362.088-53.624-364.576c-0.336-2.488-2.504-3.856-4.304-4 c-1.768-0.168-39.52-2.968-39.52-2.968S339.176,63,336.304,60.12c-1.536-1.552-3.832-1.992-6-2.008 c-5.76,9.76-4.568,28.296-4.568,28.296L307.88,493.12L311.04,493.72z"/> <path style="fill:#4A7A2B;" d="M259.528,14.68c-0.752,0-1.528,0.032-2.312,0.08c-7.728-10.264-17.312-14.752-25.592-14.752 c-63.096,0-93.392,78.984-103,119.576l19.576-6.072c10.832-36.872,36.36-96.424,81.672-96.424c2.768,0,5.504,0.928,8.144,2.76 c-20.256,9.56-41.952,33.672-51.184,81.704l19.44-6C215.728,59.224,233.32,41.64,248.728,35c3.872,9.816,6.424,23.904,6.424,42.904 c0,0.864,0,1.688-0.016,2.512l16.624-5.144c0-1.6,0.016-3.2,0.016-4.936c0-15.728-2.184-28.408-5.672-38.456 c13.968,1.744,23.296,17.704,29.296,36.064l15.504-4.808C302.112,37.872,286.672,14.68,259.528,14.68z"/> <path style="fill:#4C822A;" d="M371.752,89.648c-3.792-0.296-6.344-0.48-6.344-0.48S339.168,63,336.296,60.12 c-1.536-1.552-3.832-1.992-6-2.008c-5.76,9.76-4.568,28.296-4.568,28.296L307.872,493.12l3.168,0.6l80.784-17.568L371.752,89.648z"/> </g>
<g id="SVGRepo_iconCarrier"> <path style="fill:#95C675;" d="M404.936,92.136c-1.768-0.168-39.52-2.968-39.52-2.968S339.176,63,336.304,60.12 c-2.88-2.896-8.504-2.032-10.696-1.368c-0.312,0.088-5.72,1.776-14.672,4.536c-8.768-25.336-24.216-48.616-51.408-48.616 c-0.752,0-1.528,0.032-2.312,0.08C249.488,4.488,239.904,0,231.624,0C168.272,0,138,79.608,128.512,120.064 c-24.624,7.648-42.128,13.104-44.336,13.824c-13.768,4.336-14.192,4.768-15.976,17.776c-1.376,9.848-37.336,289.312-37.336,289.312 l280.176,52.752l151.824-33.016c0,0-53.288-362.088-53.624-364.576C408.904,93.656,406.728,92.28,404.936,92.136z M255.136,77.904 c0,0.952-0.016,1.848-0.016,2.752c-15.424,4.808-32.16,10.008-48.968,15.248c9.432-36.56,27.096-54.24,42.56-60.904 C252.592,44.808,255.136,58.904,255.136,77.904z M229.872,17.088c2.768,0,5.504,0.928,8.144,2.76 c-20.312,9.592-42.064,33.792-51.264,82.088c-13.432,4.176-26.552,8.272-38.704,12.048 C158.816,77.128,184.368,17.088,229.872,17.088z M240.792,232.384c0,0-16.4-8.792-36.488-8.792 c-29.488,0-30.976,18.592-30.976,23.264c0,25.56,66.296,35.36,66.296,95.224c0,47.104-29.712,77.424-69.808,77.424 c-48.096,0-72.704-30.088-72.704-30.088l12.872-42.76c0,0,25.28,21.832,46.64,21.832c13.92,0,19.592-11.04,19.592-19.096 c0-33.344-54.392-34.832-54.392-89.624c0-46.088,32.928-90.728,99.424-90.728c25.592,0,38.264,7.384,38.264,7.384L240.792,232.384z M271.744,75.488c0-1.688,0.016-3.336,0.016-5.152c0-15.728-2.184-28.408-5.672-38.456c14.016,1.752,23.352,17.784,29.36,36.224 C288.416,70.312,280.416,72.792,271.744,75.488z"/> <path style="fill:#79B259;" d="M404.936,92.136c-1.768-0.168-39.52-2.968-39.52-2.968S339.176,63,336.304,60.12 c-2.88-2.896-8.504-2.032-10.696-1.368c-0.312,0.088-5.72,1.776-14.672,4.536c-8.768-25.336-24.216-48.616-51.408-48.616 c-0.752,0-1.528,0.032-2.312,0.08C249.488,4.488,239.904,0,231.624,0c-63.352,0-78.984,79.608-88.472,120.064 c-24.624,7.648-43.52,49.752-45.752,50.456c-13.752,4.336-14.176,4.768-15.968,17.784c-1.384,9.84-50.568,252.672-50.568,252.672 l280.176,52.752l151.824-33.016c0,0-53.288-362.088-53.624-364.576C408.904,93.656,406.728,92.28,404.936,92.136z M255.136,77.904 c0,0.952-0.016,1.848-0.016,2.752c-15.424,4.808-32.16,10.008-48.968,15.248c9.432-36.56,27.096-54.24,42.56-60.904 C252.592,44.808,255.136,58.904,255.136,77.904z M229.872,17.088c2.768,0,5.504,0.928,8.144,2.76 c-20.312,9.592-42.064,33.792-51.264,82.088c-13.432,4.176-26.552,8.272-38.704,12.048 C158.816,77.128,184.368,17.088,229.872,17.088z M240.792,232.384c0,0-16.4-8.792-36.488-8.792 c-29.488,0-30.976,18.592-30.976,23.264c0,25.56,66.296,35.36,66.296,95.224c0,47.104-29.712,77.424-69.808,77.424 c-48.096,0-72.704-30.088-72.704-30.088l12.872-42.76c0,0,25.28,21.832,46.64,21.832c13.92,0,19.592-11.04,19.592-19.096 c0-33.344-54.392-34.832-54.392-89.624c0-46.088,32.928-90.728,99.424-90.728c25.592,0,38.264,7.384,38.264,7.384L240.792,232.384z M271.744,75.488c0-1.688,0.016-3.336,0.016-5.152c0-15.728-2.184-28.408-5.672-38.456c14.016,1.752,23.352,17.784,29.36,36.224 C288.416,70.312,280.416,72.792,271.744,75.488z"/> <path style="fill:#55932C;" d="M311.04,493.72l151.824-33.008c0,0-53.288-362.088-53.624-364.576c-0.336-2.488-2.504-3.856-4.304-4 c-1.768-0.168-39.52-2.968-39.52-2.968S339.176,63,336.304,60.12c-1.536-1.552-3.832-1.992-6-2.008 c-5.76,9.76-4.568,28.296-4.568,28.296L307.88,493.12L311.04,493.72z"/> <path style="fill:#4A7A2B;" d="M259.528,14.68c-0.752,0-1.528,0.032-2.312,0.08c-7.728-10.264-17.312-14.752-25.592-14.752 c-63.096,0-93.392,78.984-103,119.576l19.576-6.072c10.832-36.872,36.36-96.424,81.672-96.424c2.768,0,5.504,0.928,8.144,2.76 c-20.256,9.56-41.952,33.672-51.184,81.704l19.44-6C215.728,59.224,233.32,41.64,248.728,35c3.872,9.816,6.424,23.904,6.424,42.904 c0,0.864,0,1.688-0.016,2.512l16.624-5.144c0-1.6,0.016-3.2,0.016-4.936c0-15.728-2.184-28.408-5.672-38.456 c13.968,1.744,23.296,17.704,29.296,36.064l15.504-4.808C302.112,37.872,286.672,14.68,259.528,14.68z"/> <path style="fill:#4C822A;" d="M371.752,89.648c-3.792-0.296-6.344-0.48-6.344-0.48S339.168,63,336.296,60.12 c-1.536-1.552-3.832-1.992-6-2.008c-5.76,9.76-4.568,28.296-4.568,28.296L307.872,493.12l3.168,0.6l80.784-17.568L371.752,89.648z"/> </g>
</svg>